<?xml version="1.0" encoding="utf-8"?>
<!-- Generator: Adobe Illustrator 19.1.1, SVG Export Plug-In . SVG Version: 6.00 Build 0)  -->
<svg version="1.1" xmlns="http://www.w3.org/2000/svg" xmlns:xlink="http://www.w3.org/1999/xlink" x="0px" y="0px"
	 viewBox="0 0 376.7 324" style="enable-background:new 0 0 376.7 324;" xml:space="preserve">
<style type="text/css">
	.st0{fill-rule:evenodd;clip-rule:evenodd;fill:#40494C;}
	.st1{fill-rule:evenodd;clip-rule:evenodd;fill:#6C787F;}
	.st2{fill-rule:evenodd;clip-rule:evenodd;fill:#94A4AC;}
</style>
<g id="Capa_1">
</g>
<g id="Layer_1">
	<g>
		<path class="st0" d="M153.7,80.9l-9.4,0c-2.3,0-4.2,1.9-4.1,4.3l0,0c0,2.3,1.9,4.2,4.2,4.2l9.4,0l0,5.3l-9.4,0
			c-5.3,0-9.5-4.2-9.5-9.6l0,0c-0.1-5.2,4.2-9.5,9.4-9.6l9.4,0L153.7,80.9z"/>
		<path class="st0" d="M107.3,103.6l13.6-12.8c1.5-1.3,4.1-1.3,5.5,0.4l0,0c1.4,1.4,1.4,3.9-0.1,5.5l-13.8,12.6
			c-1.4,1.4-3.9,1.4-5.3-0.3l0,0C105.6,107.6,105.8,105.2,107.3,103.6L107.3,103.6z M117.3,87.2l-13.5,12.6c-3.7,3.4-4,9.3-0.6,13
			l0,0c3.4,3.7,9.3,4,13.1,0.4l13.5-12.6c3.7-3.4,4-9.3,0.6-12.9l0,0C126.8,83.8,121,83.8,117.3,87.2L117.3,87.2z"/>
		<polygon class="st0" points="77.3,153.9 80.2,139.6 115,147.1 111.9,161.3 		"/>
		<polygon class="st1" points="88.6,132.8 87,141 108.3,145.7 110.1,137.3 		"/>
		<path class="st0" d="M43.7,291.7C7.9,262.7,6,206.9,50.5,183c18.2,1,34.8,4,52.8,5c7.3,8.2,14.4,16.3,21.6,24.3
			c-11.4-5.1-24.1-12.8-36.3-15.9c-31.2-7.7-49.2,8.3-54.3,28.4c-5.3,20.7,3.4,45.7,25.9,52.7c3.8,1.5,6.7,4.7,7.5,8.8
			c1.1,6.5-3.1,12.4-9.5,13.7c-5.8,1-11.4-2.6-13.2-7.9C44.7,292,44.1,291.8,43.7,291.7L43.7,291.7z"/>
		<path class="st1" d="M67.1,284.2c7.1,2.8,12.4,3.1,20.9,1.2c15.8-3.5,27.6-13.5,35.7-29.3c19.4-46.5-32.7-72.8-71.6-70.4
			c-19.8,4.5-4.9-42.7,16.4-40.6c7.5,0.4,23.2,3.8,37.3,9.3c29.5,11.7,26,17.2,23.2,43.8c8.2,10.3,13.9,22.4,14.8,36.9
			c1.2,23.9-8.3,43.4-30.7,57.5c-15,7.6-30.9,10.7-48.2,6c-3.2,3.7-8.1,5.6-13.1,4.4c-7.4-1.6-12-8.8-10.3-16
			c1.6-7.4,8.7-11.9,16-10.3C61.9,277.4,65.3,280.4,67.1,284.2L67.1,284.2z"/>
		<path class="st2" d="M48.5,291c-0.7-3.6,1.6-6.9,5.1-7.3c3.4-0.6,6.9,1.6,7.3,5.1c0.6,3.4-1.6,6.9-5.1,7.3
			C52.3,296.8,49,294.5,48.5,291L48.5,291z"/>
		<path class="st0" d="M52.3,172.1c0.4-2.2,2.3-3.3,4.3-2.8c2,0.3,3.3,2.3,2.9,4.2c-0.5,2-2.6,3.3-4.5,2.9
			C53,175.9,51.9,174,52.3,172.1L52.3,172.1z"/>
		<path class="st0" d="M115.9,185.7c0.5-2,2.3-3.3,4.5-2.9c1.9,0.4,3.2,2.4,2.8,4.3c-0.5,2-2.3,3.3-4.5,2.9
			C116.7,189.7,115.5,187.6,115.9,185.7L115.9,185.7z"/>
		<path class="st0" d="M83.8,162.6c0.9-3.9,4.7-6.5,8.7-5.6c4.1,0.8,6.6,4.9,5.7,8.8c-0.9,3.9-4.7,6.5-8.7,5.6S83,166.7,83.8,162.6
			L83.8,162.6z"/>
		<path class="st0" d="M95.2,134.1l2.1-9.1c0.5-2.3,2.7-3.7,5-3.2l0,0c2.2,0.4,3.7,2.7,3.2,5l-1.8,9.1l5.1,1l2.1-9.1
			c1-5.1-2.2-10.2-7.3-11.2l0,0c-5.2-1.2-10.3,2.1-11.3,7.2l-1.9,9.3L95.2,134.1z"/>
		<path class="st1" d="M98.1,124.7l9.1-20.2c0.6-1.6,2.7-2.4,4.2-1.6l0,0c1.8,0.8,2.4,2.7,1.6,4.2l-9,20.3c-0.9,1.6-2.7,2.4-4.5,1.6
			l0,0C98.1,128.2,97.4,126.3,98.1,124.7L98.1,124.7z"/>
		<path class="st1" d="M121.6,91l20.4-8.6c1.8-0.8,3.6,0,4.3,1.8l0,0c0.8,1.5-0.1,3.4-1.7,4.2l-20.5,8.7c-1.7,0.6-3.6-0.3-4.2-1.9
			l0,0C119.1,93.7,120,91.8,121.6,91L121.6,91z"/>
		<polygon class="st0" points="176.8,102.3 162,102.5 161.5,67 176.3,66.8 		"/>
		<polygon class="st1" points="153.6,96 161.9,95.7 161.6,73.8 153.1,73.9 		"/>
		<path class="st0" d="M325.7,86.7c38,26,44.5,81.7,2.1,109c-18.2,0.5-35-1.1-53.2-0.7c-7.8-7.6-15.6-15.1-23.3-22.5
			c11.8,4.2,25,10.8,37.4,12.8c31.7,5.1,48.3-12.3,51.9-32.5c3.6-21.2-7.3-45.5-30.4-50.5c-3.7-1.1-6.8-4.1-7.9-8.2
			c-1.6-6.2,2.1-12.5,8.3-14.2c5.8-1.6,11.6,1.5,13.7,6.8C324.8,86.7,325.2,86.6,325.7,86.7L325.7,86.7z"/>
		<path class="st1" d="M305.9,83c1.3-7.6,0.3-13-3.3-20.7c-7.1-14.5-19.2-24-36.6-28.2c-49.6-8.5-63.6,48.1-52.5,85.5
			c8.8,18.3-40.4,14.3-43.3-6.9c-1.2-7.4-1.6-23.5,0.7-38.3c4.8-31.3,11-29.2,37.3-32.5c8.4-10.4,18.9-18.5,32.9-22.7
			c22.9-6.5,43.9-1.6,62.8,17.1c10.7,12.9,17.3,27.6,16.7,45.4c4.3,2.3,7.2,6.8,7.4,11.8c0.1,7.5-5.9,13.7-13.4,13.8
			c-7.5,0.1-13.7-5.9-13.8-13.4C300.6,89.5,302.7,85.4,305.9,83L305.9,83z"/>
		<path class="st2" d="M316.7,99.6c-3.2,1.4-7-0.2-8.4-3.3c-1.4-3.2,0.2-7,3.3-8.4c3.3-1.5,7.1,0,8.4,3.3
			C321.6,94.5,320,98.3,316.7,99.6L316.7,99.6z"/>
		<path class="st0" d="M199.9,122.6c-2,0-3.7-1.7-3.7-3.7c0-2,1.7-3.7,3.7-3.7c1.9-0.1,3.5,1.5,3.7,3.7
			C203.6,120.9,202.1,122.4,199.9,122.6L199.9,122.6z"/>
		<path class="st0" d="M199,57.4c-2,0-3.8-1.5-3.8-3.6c0-2,1.7-3.7,3.7-3.7c1.9-0.1,3.5,1.5,3.7,3.4C202.6,55.7,201.1,57.4,199,57.4
			L199,57.4z"/>
		<path class="st0" d="M183.8,93.8c-3.9,0.1-7.4-3.1-7.5-7.3c-0.1-3.9,3.2-7.2,7.3-7.5c4.1,0,7.4,3.3,7.5,7.3
			C191,90.4,187.8,93.8,183.8,93.8L183.8,93.8z"/>
	</g>
</g>
</svg>
